<?xml version="1.0" encoding="UTF-8" standalone="no"?>
<!DOCTYPE svg PUBLIC "-//W3C//DTD SVG 1.1//EN" "http://www.w3.org/Graphics/SVG/1.1/DTD/svg11.dtd">
<svg height="100%" stroke-miterlimit="10" style="fill-rule:nonzero;clip-rule:evenodd;stroke-linecap:round;stroke-linejoin:round;" version="1.1" viewBox="0 0 1600 1600" width="100%" xml:space="preserve" xmlns="http://www.w3.org/2000/svg" xmlns:vectornator="http://vectornator.io" xmlns:xlink="http://www.w3.org/1999/xlink">
<defs/>
<g id="Capa-1" vectornator:layerName="Capa 1">
<g opacity="1" vectornator:layerName="Grupo 4">
<g opacity="1" vectornator:layerName="Bull 1">
<path d="M710.677 323.875L738.907 309.469C749.238 304.23 760.443 300.738 771.939 299.283C774.267 298.992 776.45 300.738 776.741 303.066C777.032 305.395 775.285 307.577 772.957 307.868C762.48 309.178 752.294 312.234 742.836 317.036L714.606 331.442C714.024 331.733 713.296 331.878 712.569 331.878C710.968 331.878 709.513 331.005 708.64 329.55C707.767 327.658 708.64 325.039 710.677 323.875ZM761.898 422.389C763.644 420.643 766.409 420.643 768.01 422.389C769.756 424.135 769.756 426.9 768.01 428.5L759.279 437.231C758.406 438.104 757.242 438.541 756.223 438.541C755.204 438.541 754.04 438.104 753.167 437.231C751.421 435.485 751.421 432.72 753.167 431.12L761.898 422.389ZM764.954 377.425C767.428 377.425 769.319 379.316 769.319 381.79C769.319 392.267 773.394 402.162 780.815 409.583C788.236 417.005 798.131 421.079 808.463 421.079L808.463 421.079L867.688 420.934L881.657 402.308C882.53 401.143 882.967 399.834 882.967 398.379C882.967 396.487 882.094 394.595 880.638 393.431L877.437 390.812L877.292 390.666L848.189 364.474C847.315 363.601 846.733 362.436 846.733 361.272L846.733 348.613L829.563 332.024C827.816 330.423 827.816 327.658 829.417 325.912C831.018 324.166 833.783 324.166 835.529 325.767L854.009 343.52C854.882 344.393 855.319 345.557 855.319 346.721L855.319 359.381L882.821 384.118L886.022 386.592C889.66 389.502 891.698 393.722 891.698 398.379C891.698 401.58 890.679 404.781 888.642 407.401L873.363 427.773C872.49 428.937 871.18 429.519 869.87 429.519L808.608 429.664C808.608 429.664 808.608 429.664 808.463 429.664C795.658 429.664 783.58 424.717 774.558 415.695C765.536 406.673 760.443 394.595 760.443 381.79C760.588 379.462 762.48 377.425 764.954 377.425Z" fill="#87723d" fill-rule="nonzero" opacity="1" stroke="#000000" stroke-linecap="butt" stroke-linejoin="round" stroke-width="4.03177" vectornator:layerName="path"/>
<path d="M827.234 354.724L835.965 360.545C838.002 361.854 838.585 364.619 837.129 366.656C836.256 367.821 834.947 368.548 833.492 368.548C832.618 368.548 831.891 368.257 831.018 367.821L822.287 362C820.25 360.69 819.668 357.926 821.123 355.888C822.432 353.997 825.197 353.415 827.234 354.724ZM872.49 265.815L820.541 304.522C819.086 305.54 818.503 307.432 818.94 309.178L822.723 323.584C823.305 325.912 821.996 328.24 819.668 328.968C817.339 329.55 815.011 328.24 814.284 325.912L810.5 311.506C809.045 306.268 810.937 300.884 815.302 297.682L844.114 276.001L800.46 291.425C797.113 292.589 794.639 295.5 793.911 298.992L789.546 319.51C792.02 323.147 795.803 325.621 800.169 326.349C802.497 326.785 804.097 328.968 803.806 331.442C803.515 333.625 801.624 335.08 799.441 335.08C799.15 335.08 799.004 335.08 798.713 335.08C792.02 333.916 785.908 329.987 782.125 324.312L781.252 323.002C780.67 321.983 780.379 320.819 780.67 319.655L785.326 297.391C786.636 290.989 791.438 285.605 797.549 283.422L868.415 258.248C870.452 257.52 872.635 258.393 873.654 260.285C874.672 262.177 874.236 264.505 872.49 265.815Z" fill="#87723d" fill-rule="nonzero" opacity="1" stroke="#000000" stroke-linecap="butt" stroke-linejoin="round" stroke-width="4.03177" vectornator:layerName="path"/>
</g>
<g opacity="1" vectornator:layerName="Grupo 1">
<path d="M403.111 680.685C403.111 713.56 376.321 740.35 343.446 740.35L164.45 740.35C131.575 740.35 104.785 713.56 104.785 680.685L104.785 621.02L403.111 621.02L403.111 680.685Z" fill="#87723d" fill-rule="nonzero" opacity="1" stroke="#000000" stroke-linecap="butt" stroke-linejoin="round" stroke-width="8.06355" vectornator:layerName="path"/>
<path d="M222.11 621.027C189.234 621.027 162.421 647.809 162.421 680.685L162.421 1217.67L341.425 1217.67L341.425 680.685C341.425 647.809 314.643 621.027 281.768 621.027L222.11 621.027Z" fill="#87723d" fill-rule="nonzero" opacity="1" stroke="#000000" stroke-linecap="butt" stroke-linejoin="round" stroke-width="8.06355" vectornator:layerName="Curva 3"/>
</g>
<g opacity="1" vectornator:layerName="Grupo 2">
<path d="M949.163 680.685C949.163 713.56 922.373 740.35 889.498 740.35L710.502 740.35C677.627 740.35 650.837 713.56 650.837 680.685L650.837 621.02L949.163 621.02L949.163 680.685Z" fill="#87723d" fill-rule="nonzero" opacity="1" stroke="#000000" stroke-linecap="butt" stroke-linejoin="round" stroke-width="8.06355" vectornator:layerName="path"/>
<path d="M768.162 621.027C735.286 621.027 708.473 647.809 708.473 680.685L708.473 1217.67L887.477 1217.67L887.477 680.685C887.477 647.809 860.695 621.027 827.82 621.027L768.162 621.027Z" fill="#87723d" fill-rule="nonzero" opacity="1" stroke="#000000" stroke-linecap="butt" stroke-linejoin="round" stroke-width="8.06355" vectornator:layerName="Curva 3"/>
</g>
<g opacity="1" vectornator:layerName="Grupo 3">
<path d="M1468.4 680.685C1468.4 713.56 1441.61 740.35 1408.74 740.35L1229.74 740.35C1196.86 740.35 1170.07 713.56 1170.07 680.685L1170.07 621.02L1468.4 621.02L1468.4 680.685Z" fill="#87723d" fill-rule="nonzero" opacity="1" stroke="#000000" stroke-linecap="butt" stroke-linejoin="round" stroke-width="8.06355" vectornator:layerName="path"/>
<path d="M1287.4 621.027C1254.52 621.027 1227.71 647.809 1227.71 680.685L1227.71 1217.67L1406.71 1217.67L1406.71 680.685C1406.71 647.809 1379.93 621.027 1347.06 621.027L1287.4 621.027Z" fill="#87723d" fill-rule="nonzero" opacity="1" stroke="#000000" stroke-linecap="butt" stroke-linejoin="round" stroke-width="8.06355" vectornator:layerName="Curva 3"/>
</g>
<path d="M162.232 1277.32L162.232 1396.67C162.232 1429.55 188.849 1456.33 221.51 1456.33L1347.77 1456.33C1380.43 1456.33 1407.01 1429.55 1407.01 1396.67C1407.01 1381.75 1407.01 1277.32 1407.01 1277.32L162.232 1277.32Z" fill="#87723d" fill-rule="nonzero" opacity="1" stroke="#000000" stroke-linecap="butt" stroke-linejoin="round" stroke-width="8.06355" vectornator:layerName="Curva 1"/>
<path d="M113.856 1575.66C80.9808 1575.66 54.1911 1548.87 54.1911 1516L54.1911 1456.33C54.1911 1423.46 80.9808 1396.67 113.856 1396.67L1486.16 1396.67C1519.03 1396.67 1545.82 1423.46 1545.82 1456.33L1545.82 1516C1545.82 1548.87 1519.03 1575.66 1486.16 1575.66L113.856 1575.66ZM1509.96 446.319L828.347 32.4813C810.508 21.6223 788.372 21.6223 770.532 32.4813L82.6514 450.138C60.2769 463.742 49.4178 491.247 56.16 517.261C62.9022 543.275 85.575 561.354 111.529 561.354L1487.35 561.354C1487.83 561.354 1488.3 561.354 1488.54 561.354C1520.17 561.354 1545.82 534.684 1545.82 501.689C1545.82 476.629 1531.02 455.21 1509.96 446.319ZM800.007 480.746C729.124 480.746 671.786 423.408 671.786 352.526C671.786 281.643 729.124 224.305 800.007 224.305C870.889 224.305 928.227 281.703 928.227 352.526C928.227 423.408 870.889 480.746 800.007 480.746Z" fill="#87723d" fill-rule="nonzero" opacity="1" stroke="#000000" stroke-linecap="butt" stroke-linejoin="round" stroke-width="8.06355" vectornator:layerName="path"/>
</g>
</g>
</svg>
